<svg width="24" height="24" viewBox="0 0 24 24" fill="none" xmlns="http://www.w3.org/2000/svg">
<path d="M20.1818 2.00006H3.81818C2.81403 2.00006 2 2.81504 2 3.8192C2 3.84496 2 3.86304 2 3.87204V20.2357C2 21.2101 2.79089 22.0001 3.76533 22.0001C3.79099 22.0001 3.80908 22.0001 3.81818 22.0001H20.1818C20.1909 22.0001 20.209 22.0001 20.2347 22.0001C21.2091 22.0001 22 21.2101 22 20.2357V3.87201C22 3.86302 22 3.84495 22 3.8192C22 2.81504 21.186 2.00006 20.1818 2.00006ZM13.8182 20.2357H3.81818V12.9629H13.8182V20.2357ZM13.8182 11.1447H3.81818V3.87204L13.8182 3.87201V11.1447ZM20.1818 20.2357H15.6364V3.87204H20.1818V20.2357Z" fill="#E7E7E7"/>
</svg>
